<?xml version="1.0" encoding="utf-8"?>
<!-- Generator: Adobe Illustrator 28.0.0, SVG Export Plug-In . SVG Version: 6.00 Build 0)  -->
<svg version="1.1" id="Layer_1" xmlns="http://www.w3.org/2000/svg" xmlns:xlink="http://www.w3.org/1999/xlink" x="0px" y="0px"
	 viewBox="0 0 235.4 71.5" style="enable-background:new 0 0 235.4 71.5;" xml:space="preserve">
<style type="text/css">
	.st0{fill:url(#SVGID_1_);}
	.st1{fill:#231F20;}
	.st2{fill:#C4DA50;}
	.st3{fill:#C5DA4C;}
	.st4{fill:none;stroke:#C5DA4C;stroke-width:0.32;stroke-miterlimit:10;}
	.st5{fill:#FFFFFF;}
	.st6{fill:#0098C4;}
	.st7{fill:url(#SVGID_00000167394244449515691660000000313611344012346028_);}
	.st8{fill:url(#SVGID_00000049920669535256594180000014963795872476819615_);}
	.st9{fill:#1D2C67;}
	.st10{fill:#42545E;}
	.st11{fill:#0098C3;}
	.st12{fill:url(#SVGID_00000155851956041055358070000010146553367212076219_);}
	.st13{fill:url(#SVGID_00000060728335037362176290000012601775919958623409_);}
	.st14{fill:url(#SVGID_00000179639795568810016340000001375608026976622010_);}
</style>
<g>
	<g>
		<path class="st5" d="M39.9,1.7L23,48.1h-4.9L0.5,1.7h8.1L21,35.3L32.8,1.7H39.9z"/>
		<path class="st5" d="M55.3,48.1h-7.1V1.7h7.1V48.1z"/>
		<path class="st5" d="M106.7,48.1h-8L95.1,38H75.7l-3.6,10.2H65L82.3,1.7h6.9L106.7,48.1z M92.1,29.6l-6.6-18.9l-6.8,18.9H92.1z"/>
	</g>
	<g>
		<rect x="17" y="54.1" class="st2" width="218.4" height="2.4"/>
	</g>
	<g>
		<path class="st5" d="M136.9,16c0,1.7-0.3,2.9-1,3.5c-0.7,0.6-1.9,0.9-3.6,0.9h-11.5c-1.9,0-3.1-0.3-3.7-1c-0.6-0.7-0.9-2-0.9-3.9
			l3.8-0.8v2.2h13.1v-4.2h-11.6c-1.8,0-3-0.3-3.6-0.9c-0.7-0.6-1-1.8-1-3.5V6.2c0-1.7,0.3-2.9,1-3.5c0.7-0.6,1.9-0.9,3.6-0.9H132
			c1.8,0,3,0.3,3.6,0.9c0.6,0.6,1,1.8,1,3.5l-3.8,0.9V5h-12.2v4h11.6c1.8,0,3,0.3,3.6,0.9c0.7,0.6,1,1.8,1,3.5V16z"/>
		<path class="st5" d="M162.4,20.4h-2.9V12c0-0.3,0-0.8,0.1-1.4c-0.2,0.3-0.4,0.8-0.8,1.4l-5,6.7h-0.6l-5-6.7
			c-0.4-0.5-0.6-0.9-0.8-1.4c0.1,0.5,0.1,1,0.1,1.3v8.4h-2.5V6.9h2.5l6.3,8.1l6.2-8.1h2.5V20.4z"/>
		<path class="st5" d="M185,20.4h-3.5l-1.6-2.9h-8.5l-1.6,2.9h-3.1l7.6-13.4h3L185,20.4z M178.5,15l-2.9-5.5l-3,5.5H178.5z"/>
		<path class="st5" d="M205.4,20.4H201l-5.4-5.1h-3v5.1h-3.1V6.9H201c2,0,3,0.9,3,2.6v3.1c0,1.3-0.5,2.1-1.6,2.4
			c-0.4,0.1-1.5,0.2-3.2,0.2L205.4,20.4z M201,11.9v-1.6c0-0.5-0.1-0.7-0.4-0.9c-0.2-0.1-0.5-0.2-1-0.2h-7V13h7c0.5,0,0.8-0.1,1-0.2
			C200.9,12.7,201,12.4,201,11.9z"/>
		<path class="st5" d="M222.6,9.3h-6.2v11h-3.1v-11h-6.2V6.9h15.5V9.3z"/>
	</g>
	<g>
		<path class="st5" d="M135.7,32.8h-14.5v4.9h7.8v3.4h-7.8v7.1h-4.3V29.6h18.8V32.8z"/>
		<path class="st5" d="M150.4,48.1h-3.2l-1.5-2.7h-7.8l-1.4,2.7h-2.9l7-12.4h2.8L150.4,48.1z M144.4,43.2l-2.7-5l-2.8,5H144.4z"/>
		<path class="st5" d="M164.8,45.2c0,1.2-0.2,1.9-0.7,2.3c-0.4,0.4-1.2,0.6-2.4,0.6h-7.4c-1.2,0-2-0.2-2.4-0.6
			c-0.4-0.4-0.7-1.2-0.7-2.3v-6.5c0-1.2,0.2-1.9,0.7-2.3c0.4-0.4,1.2-0.6,2.4-0.6h7.4c1.5,0,2.4,0.3,2.7,1c0.2,0.4,0.3,1.4,0.3,3.1
			l-2.9,0.5V38h-7.8v7.8h7.8v-2.7l2.9,0.6V45.2z"/>
		<path class="st5" d="M179.8,38h-5.7v10.2h-2.9V38h-5.7v-2.2h14.3V38z"/>
		<path class="st5" d="M195.9,45.2c0,1.2-0.2,1.9-0.7,2.3c-0.4,0.4-1.2,0.6-2.4,0.6h-9.1c-1.2,0-2-0.2-2.4-0.6
			c-0.4-0.4-0.7-1.2-0.7-2.3v-6.5c0-1.2,0.2-1.9,0.7-2.3c0.4-0.4,1.2-0.6,2.4-0.6h9.1c1.2,0,2,0.2,2.4,0.6c0.4,0.4,0.7,1.2,0.7,2.3
			V45.2z M193,45.8V38h-9.5v7.8H193z"/>
		<path class="st5" d="M214.3,48.1h-4.1l-5-4.7h-2.7v4.7h-2.8V35.8h10.6c1.9,0,2.8,0.8,2.8,2.4v2.9c0,1.2-0.5,1.9-1.4,2.2
			c-0.4,0.1-1.4,0.2-3,0.2L214.3,48.1z M210.2,40.4v-1.5c0-0.4-0.1-0.7-0.4-0.8c-0.2-0.1-0.5-0.2-0.9-0.2h-6.5v3.5h6.5
			c0.4,0,0.8-0.1,0.9-0.2C210.1,41.1,210.2,40.8,210.2,40.4z"/>
		<path class="st5" d="M228.7,35.8l-6.4,6.8v5.6h-2.9v-5.5l-6.4-6.8h3.8l4.2,4.8l4.3-4.8H228.7z"/>
	</g>
	<g>
		<path class="st6" d="M128.2,64.3c0,0.6-0.2,1.1-0.7,1.5s-1.1,0.5-1.8,0.5h-0.3l-0.4,2h-1.2l1.2-5.7h1.3c0.6,0,1.1,0.1,1.4,0.4
			S128.2,63.8,128.2,64.3z M125.6,65.4h0.2c0.4,0,0.7-0.1,0.9-0.3s0.3-0.4,0.3-0.7c0-0.5-0.3-0.7-0.8-0.7h-0.3L125.6,65.4z"/>
		<path class="st6" d="M132.9,65.7c0,0.5-0.1,1-0.3,1.5s-0.4,0.8-0.8,1s-0.8,0.3-1.2,0.3c-0.5,0-0.9-0.2-1.2-0.5s-0.5-0.7-0.5-1.2
			c0-0.6,0.1-1,0.3-1.5s0.5-0.8,0.8-1s0.8-0.4,1.2-0.4c0.5,0,0.9,0.2,1.2,0.5S132.9,65.1,132.9,65.7z M131.7,65.7
			c0-0.5-0.2-0.8-0.6-0.8c-0.2,0-0.4,0.1-0.5,0.2s-0.3,0.4-0.4,0.7s-0.1,0.6-0.1,0.9c0,0.5,0.2,0.7,0.6,0.7c0.2,0,0.4-0.1,0.5-0.2
			s0.3-0.4,0.4-0.7S131.7,66,131.7,65.7z"/>
		<path class="st6" d="M137,65c-0.2,0.5-0.3,0.9-0.5,1.2l-0.9,2.1h-1.3l-0.2-4.4h1.1l0,1.9l0,0.7l0,0.7h0c0-0.1,0-0.1,0.1-0.2
			s0.1-0.2,0.2-0.5s0.2-0.5,0.2-0.5l0.9-2.1h1.3v2.1c0,0.4,0,0.8,0,1.2h0l0.1-0.3c0.2-0.5,0.3-0.9,0.4-1l0.9-1.9h1.2l-2.1,4.4H137
			l0-2C137,66,137,65.5,137,65L137,65z"/>
		<path class="st6" d="M142.4,68.5c-0.5,0-1-0.1-1.3-0.4s-0.5-0.7-0.5-1.2c0-0.5,0.1-1,0.3-1.5s0.5-0.8,0.9-1s0.8-0.3,1.2-0.3
			c0.5,0,0.8,0.1,1.1,0.3s0.4,0.5,0.4,0.9c0,0.5-0.2,0.9-0.7,1.1s-1.1,0.4-1.9,0.4h-0.2l0,0.1v0.1c0,0.2,0.1,0.4,0.2,0.6
			s0.3,0.2,0.6,0.2c0.2,0,0.4,0,0.6-0.1s0.4-0.1,0.7-0.3v0.9C143.5,68.4,143,68.5,142.4,68.5z M143.1,64.8c-0.2,0-0.4,0.1-0.6,0.3
			s-0.3,0.5-0.4,0.8h0.2c0.4,0,0.7-0.1,0.9-0.2s0.3-0.3,0.3-0.5C143.5,64.9,143.4,64.8,143.1,64.8z"/>
		<path class="st6" d="M148.5,63.9c0.2,0,0.3,0,0.4,0l-0.3,1.1c-0.1,0-0.2-0.1-0.4-0.1c-0.3,0-0.6,0.1-0.8,0.4s-0.4,0.6-0.5,1
			l-0.4,2h-1.2l0.9-4.4h0.9l-0.1,0.8h0C147.5,64.2,148,63.9,148.5,63.9z"/>
		<path class="st6" d="M151.1,68.5c-0.5,0-1-0.1-1.3-0.4s-0.5-0.7-0.5-1.2c0-0.5,0.1-1,0.3-1.5s0.5-0.8,0.9-1s0.8-0.3,1.2-0.3
			c0.5,0,0.8,0.1,1.1,0.3s0.4,0.5,0.4,0.9c0,0.5-0.2,0.9-0.7,1.1s-1.1,0.4-1.9,0.4h-0.2l0,0.1v0.1c0,0.2,0.1,0.4,0.2,0.6
			s0.3,0.2,0.6,0.2c0.2,0,0.4,0,0.6-0.1s0.4-0.1,0.7-0.3v0.9C152.1,68.4,151.6,68.5,151.1,68.5z M151.7,64.8c-0.2,0-0.4,0.1-0.6,0.3
			s-0.3,0.5-0.4,0.8h0.2c0.4,0,0.7-0.1,0.9-0.2s0.3-0.3,0.3-0.5C152.1,64.9,152,64.8,151.7,64.8z"/>
		<path class="st6" d="M155.4,68.5c-0.4,0-0.7-0.1-0.9-0.4s-0.3-0.7-0.3-1.2c0-0.5,0.1-1,0.3-1.5s0.4-0.8,0.7-1.1s0.6-0.4,1-0.4
			c0.2,0,0.4,0,0.6,0.1c0.2,0.1,0.3,0.3,0.4,0.5h0l0-0.1c0-0.3,0-0.5,0.1-0.8l0.3-1.4h1.2l-1.3,6.1h-0.9l0.1-0.6h0
			c-0.2,0.2-0.4,0.4-0.6,0.5S155.7,68.5,155.4,68.5z M155.9,67.5c0.2,0,0.3-0.1,0.5-0.3s0.3-0.4,0.4-0.7s0.1-0.6,0.1-1
			c0-0.2,0-0.4-0.1-0.5s-0.2-0.2-0.4-0.2c-0.2,0-0.3,0.1-0.5,0.3s-0.3,0.4-0.4,0.7s-0.1,0.6-0.1,0.9
			C155.4,67.3,155.6,67.5,155.9,67.5z"/>
		<path class="st6" d="M164.7,63.9c0.4,0,0.7,0.1,0.9,0.4s0.3,0.7,0.3,1.2s-0.1,1-0.3,1.4s-0.4,0.8-0.7,1.1s-0.7,0.4-1,0.4
			c-0.5,0-0.9-0.2-1.1-0.6h0l-0.2,0.6h-0.9l1.3-6.1h1.2l-0.2,1.1c-0.1,0.5-0.2,0.9-0.3,1.2h0c0.2-0.3,0.4-0.4,0.6-0.5
			C164.3,64,164.5,63.9,164.7,63.9z M164.2,64.9c-0.2,0-0.3,0.1-0.5,0.3s-0.3,0.4-0.4,0.7s-0.2,0.6-0.2,1c0,0.2,0,0.4,0.1,0.5
			s0.2,0.2,0.4,0.2c0.2,0,0.3-0.1,0.5-0.3s0.3-0.4,0.4-0.7s0.1-0.6,0.1-0.9C164.7,65.1,164.5,64.9,164.2,64.9z"/>
		<path class="st6" d="M167,64h1.2l0.2,2c0,0.3,0.1,0.7,0.1,1.1h0c0.1-0.1,0.1-0.3,0.2-0.5s0.1-0.4,0.3-0.6l1-2.1h1.3l-2.7,5
			c-0.5,0.9-1.1,1.3-1.9,1.3c-0.2,0-0.4,0-0.6-0.1v-0.9c0.2,0,0.3,0.1,0.5,0.1c0.2,0,0.4-0.1,0.6-0.2s0.3-0.3,0.5-0.6l0.1-0.2
			L167,64z"/>
	</g>
	<g>
		<path class="st5" d="M184.7,66.2c0,0.9-0.2,1.4-0.5,1.7c-0.3,0.3-0.9,0.5-1.8,0.5h-5.5c-0.9,0-1.5-0.1-1.8-0.5
			c-0.3-0.3-0.5-0.9-0.5-1.7v-4.9c0-0.9,0.2-1.4,0.5-1.7s0.9-0.5,1.8-0.5h5.5c1.1,0,1.8,0.3,2.1,0.8c0.2,0.3,0.3,1.1,0.3,2.3
			l-2.2,0.3v-1.8h-5.8v5.9h5.8v-2l2.2,0.5V66.2z"/>
		<path class="st5" d="M198.3,68.4h-3.1l-3.7-3.5h-2.1v3.5h-2.1v-9.3h8c1.4,0,2.1,0.6,2.1,1.8v2.2c0,0.9-0.4,1.5-1.1,1.7
			c-0.3,0.1-1,0.1-2.2,0.1L198.3,68.4z M195.3,62.6v-1.1c0-0.3-0.1-0.5-0.3-0.6c-0.1-0.1-0.4-0.1-0.7-0.1h-4.9v2.6h4.9
			c0.3,0,0.6,0,0.7-0.1C195.2,63.1,195.3,62.9,195.3,62.6z"/>
		<path class="st5" d="M209.6,68.4H200v-9.3h9.5v1.6h-7.3v2.1h4.3v1.6h-4.3v2.3h7.4V68.4z"/>
		<path class="st5" d="M222.6,68.4h-2.4l-1.1-2h-5.9l-1.1,2H210l5.3-9.3h2.1L222.6,68.4z M218.2,64.7l-2-3.8l-2.1,3.8H218.2z"/>
		<path class="st5" d="M234.7,68.4h-1.5l-6.8-5.7c-0.3-0.2-0.5-0.5-0.8-0.8c0.1,0.6,0.1,1.1,0.1,1.4v5.1h-1.9v-9.3h1.5l6.5,5.5
			c0.5,0.4,0.8,0.7,1.1,1c-0.1-0.9-0.1-1.4-0.1-1.6v-4.9h1.9V68.4z"/>
	</g>
	<g>
		<g>
			<path class="st3" d="M231,36.5c0.1,0,0.3,0,0.6,0c0.3,0,0.5,0,0.6,0.1c0.1,0.1,0.2,0.2,0.2,0.3c0,0.2-0.2,0.4-0.4,0.4v0
				c0.1,0,0.2,0.2,0.3,0.3c0.1,0.2,0.1,0.4,0.2,0.5h-0.4c0,0-0.1-0.2-0.1-0.4c-0.1-0.2-0.2-0.3-0.4-0.3h-0.2v0.7H231V36.5z
				 M231.4,37.2h0.2c0.2,0,0.4-0.1,0.4-0.3c0-0.2-0.2-0.3-0.4-0.3c-0.1,0-0.2,0-0.2,0V37.2z"/>
		</g>
		<g>
			<path class="st3" d="M231.7,39c-0.9,0-1.7-0.8-1.7-1.7s0.8-1.7,1.7-1.7s1.7,0.8,1.7,1.7S232.6,39,231.7,39z M231.7,35.9
				c-0.8,0-1.4,0.6-1.4,1.4s0.6,1.4,1.4,1.4s1.4-0.6,1.4-1.4S232.4,35.9,231.7,35.9z"/>
		</g>
	</g>
</g>
</svg>
